<svg width="12" height="13" viewBox="0 0 12 13" fill="none" xmlns="http://www.w3.org/2000/svg">
<path d="M6 8.83333C6.65378 8.83333 7.20622 8.608 7.65733 8.15733C8.108 7.70578 8.33333 7.15333 8.33333 6.5C8.33333 5.84622 8.108 5.29378 7.65733 4.84267C7.20578 4.392 6.65333 4.16667 6 4.16667C5.34622 4.16667 4.79378 4.392 4.34267 4.84267C3.892 5.29422 3.66667 5.84667 3.66667 6.5C3.66667 7.15378 3.892 7.70622 4.34267 8.15733C4.79422 8.608 5.34667 8.83333 6 8.83333ZM6 7.16667C5.81111 7.16667 5.65289 7.10267 5.52533 6.97467C5.39778 6.84667 5.33378 6.68844 5.33333 6.5C5.33333 6.31111 5.39733 6.15289 5.52533 6.02533C5.65333 5.89778 5.81156 5.83378 6 5.83333C6.18889 5.83333 6.34733 5.89733 6.47533 6.02533C6.60333 6.15333 6.66711 6.31156 6.66667 6.5C6.66667 6.68889 6.60267 6.84733 6.47467 6.97533C6.34667 7.10333 6.18844 7.16711 6 7.16667ZM6.002 12.5C5.17267 12.5 4.39267 12.3427 3.662 12.028C2.93178 11.7129 2.29644 11.2853 1.756 10.7453C1.21556 10.2058 0.787778 9.57111 0.472667 8.84133C0.157556 8.11156 0 7.33178 0 6.502C0 5.67267 0.157333 4.89267 0.472 4.162C0.787111 3.43178 1.21467 2.79644 1.75467 2.256C2.29422 1.71556 2.92889 1.28778 3.65867 0.972667C4.38844 0.657556 5.16822 0.5 5.998 0.5C6.82733 0.5 7.60733 0.657333 8.338 0.972C9.06822 1.28711 9.70356 1.71467 10.244 2.25467C10.7844 2.79422 11.2122 3.42889 11.5273 4.15867C11.8424 4.88844 12 5.66822 12 6.498C12 7.32733 11.8427 8.10733 11.528 8.838C11.2129 9.56822 10.7853 10.2036 10.2453 10.744C9.70578 11.2844 9.07111 11.7122 8.34133 12.0273C7.61156 12.3424 6.83178 12.5 6.002 12.5ZM6 11.8333C7.48889 11.8333 8.75 11.3167 9.78333 10.2833C10.8167 9.25 11.3333 7.98889 11.3333 6.5C11.3333 5.01111 10.8167 3.75 9.78333 2.71667C8.75 1.68333 7.48889 1.16667 6 1.16667C4.51111 1.16667 3.25 1.68333 2.21667 2.71667C1.18333 3.75 0.666667 5.01111 0.666667 6.5C0.666667 7.98889 1.18333 9.25 2.21667 10.2833C3.25 11.3167 4.51111 11.8333 6 11.8333Z" fill="white"/>
</svg>
