<svg width="14" height="15" viewBox="0 0 14 15" fill="none" xmlns="http://www.w3.org/2000/svg">
<path fill-rule="evenodd" clip-rule="evenodd" d="M6.99998 8.49996C7.70722 8.49996 8.3855 8.21901 8.8856 7.71891C9.38569 7.21881 9.66665 6.54054 9.66665 5.83329C9.66665 5.12605 9.38569 4.44777 8.8856 3.94767C8.3855 3.44758 7.70722 3.16663 6.99998 3.16663C6.29274 3.16663 5.61446 3.44758 5.11436 3.94767C4.61426 4.44777 4.33331 5.12605 4.33331 5.83329C4.33331 6.54054 4.61426 7.21881 5.11436 7.71891C5.61446 8.21901 6.29274 8.49996 6.99998 8.49996ZM6.99998 7.83329C7.26262 7.83329 7.5227 7.78156 7.76535 7.68105C8.008 7.58054 8.22848 7.43322 8.41419 7.24751C8.59991 7.06179 8.74723 6.84131 8.84774 6.59866C8.94825 6.35601 8.99998 6.09594 8.99998 5.83329C8.99998 5.57065 8.94825 5.31058 8.84774 5.06793C8.74723 4.82527 8.59991 4.6048 8.41419 4.41908C8.22848 4.23336 8.008 4.08604 7.76535 3.98553C7.5227 3.88502 7.26262 3.83329 6.99998 3.83329C6.46955 3.83329 5.96084 4.04401 5.58577 4.41908C5.21069 4.79415 4.99998 5.30286 4.99998 5.83329C4.99998 6.36373 5.21069 6.87243 5.58577 7.24751C5.96084 7.62258 6.46955 7.83329 6.99998 7.83329Z" fill="white"/>
<path fill-rule="evenodd" clip-rule="evenodd" d="M13.6666 7.49998C13.6666 11.182 10.682 14.1666 6.99998 14.1666C3.31798 14.1666 0.333313 11.182 0.333313 7.49998C0.333313 3.81798 3.31798 0.833313 6.99998 0.833313C10.682 0.833313 13.6666 3.81798 13.6666 7.49998ZM10.21 12.57C9.2503 13.1792 8.13668 13.5018 6.99998 13.5C5.83614 13.5018 4.69713 13.1635 3.72298 12.5266C3.64298 12.4266 3.56165 12.3233 3.47965 12.2166C3.38437 12.0917 3.33294 11.9388 3.33331 11.7816C3.33331 11.4226 3.59131 11.1216 3.93631 11.0713C6.21798 10.738 7.78898 10.7666 10.0736 11.083C10.2391 11.107 10.3903 11.19 10.4993 11.3168C10.6083 11.4435 10.6677 11.6055 10.6666 11.7726C10.6666 11.9326 10.6116 12.088 10.5123 12.2093C10.41 12.334 10.309 12.4543 10.21 12.57ZM11.3283 11.6553C11.275 11.0313 10.8013 10.5106 10.165 10.4226C7.82631 10.099 6.19165 10.068 3.83998 10.4116C3.19998 10.505 2.72831 11.0303 2.67231 11.656C1.59742 10.5397 0.997861 9.04967 0.99998 7.49998C0.99998 4.18631 3.68631 1.49998 6.99998 1.49998C10.3136 1.49998 13 4.18631 13 7.49998C13.0021 9.04935 12.4028 10.5391 11.3283 11.6553Z" fill="white"/>
</svg>
