<svg width="12" height="12" viewBox="0 0 12 12" fill="none" xmlns="http://www.w3.org/2000/svg">
<path d="M2.76933 9.23067L6.97467 6.97467L9.23067 2.76933L5.02533 5.02533L2.76933 9.23067ZM6 6.66667C5.81111 6.66667 5.65289 6.60267 5.52533 6.47467C5.39778 6.34667 5.33378 6.18844 5.33333 6C5.33333 5.81111 5.39733 5.65289 5.52533 5.52533C5.65333 5.39778 5.81156 5.33378 6 5.33333C6.18889 5.33333 6.34733 5.39733 6.47533 5.52533C6.60333 5.65333 6.66711 5.81156 6.66667 6C6.66667 6.18889 6.60267 6.34733 6.47467 6.47533C6.34667 6.60333 6.18844 6.66711 6 6.66667ZM6.002 12C5.17267 12 4.39267 11.8427 3.662 11.528C2.93178 11.2129 2.29644 10.7853 1.756 10.2453C1.21556 9.70578 0.787778 9.07111 0.472667 8.34133C0.157556 7.61156 0 6.83178 0 6.002C0 5.17267 0.157333 4.39267 0.472 3.662C0.787111 2.93178 1.21467 2.29644 1.75467 1.756C2.29422 1.21556 2.92889 0.787778 3.65867 0.472667C4.38844 0.157556 5.16822 0 5.998 0C6.82733 0 7.60733 0.157333 8.338 0.472C9.06822 0.787111 9.70356 1.21467 10.244 1.75467C10.7844 2.29422 11.2122 2.92889 11.5273 3.65867C11.8424 4.38844 12 5.16822 12 5.998C12 6.82733 11.8427 7.60733 11.528 8.338C11.2129 9.06822 10.7853 9.70356 10.2453 10.244C9.70578 10.7844 9.07111 11.2122 8.34133 11.5273C7.61156 11.8424 6.83178 12 6.002 12ZM6 11.3333C7.48889 11.3333 8.75 10.8167 9.78333 9.78333C10.8167 8.75 11.3333 7.48889 11.3333 6C11.3333 4.51111 10.8167 3.25 9.78333 2.21667C8.75 1.18333 7.48889 0.666667 6 0.666667C4.51111 0.666667 3.25 1.18333 2.21667 2.21667C1.18333 3.25 0.666667 4.51111 0.666667 6C0.666667 7.48889 1.18333 8.75 2.21667 9.78333C3.25 10.8167 4.51111 11.3333 6 11.3333Z" fill="white"/>
</svg>
