<svg width="24" height="18" viewBox="0 0 24 18" fill="none" xmlns="http://www.w3.org/2000/svg">
<path d="M1.75 0H22.25C23.216 0 24 0.784 24 1.75V15.75C24 16.2141 23.8156 16.6592 23.4874 16.9874C23.1592 17.3156 22.7141 17.5 22.25 17.5H1.75C1.28587 17.5 0.840752 17.3156 0.512563 16.9874C0.184374 16.6592 0 16.2141 0 15.75L0 1.75C0 0.784 0.784 0 1.75 0ZM1.5 4.412V15.75C1.5 15.888 1.612 16 1.75 16H22.25C22.3163 16 22.3799 15.9737 22.4268 15.9268C22.4737 15.8799 22.5 15.8163 22.5 15.75V4.412L12.98 10.845C12.388 11.245 11.612 11.245 11.02 10.845L1.5 4.412ZM1.5 1.75V2.602L11.86 9.602C11.9013 9.62994 11.9501 9.64488 12 9.64488C12.0499 9.64488 12.0987 9.62994 12.14 9.602L22.5 2.602V1.75C22.5 1.6837 22.4737 1.62011 22.4268 1.57322C22.3799 1.52634 22.3163 1.5 22.25 1.5H1.75C1.6837 1.5 1.62011 1.52634 1.57322 1.57322C1.52634 1.62011 1.5 1.6837 1.5 1.75Z" fill="white"/>
</svg>
