<svg width="20" height="20" viewBox="0 0 14 13" fill="none" xmlns="http://www.w3.org/2000/svg">
<path d="M10.125 0.625C8.8125 0.625 7.67125 1.21688 7 2.20875C6.32875 1.21688 5.1875 0.625 3.875 0.625C2.88079 0.626158 1.92764 1.02162 1.22463 1.72463C0.521618 2.42764 0.126158 3.38079 0.125 4.375C0.125 6.2 1.2625 8.09937 3.50625 10.0194C4.53441 10.8955 5.64501 11.6699 6.8225 12.3319C6.87707 12.3612 6.93805 12.3765 7 12.3765C7.06195 12.3765 7.12293 12.3612 7.1775 12.3319C8.35499 11.6699 9.46559 10.8955 10.4937 10.0194C12.7375 8.09937 13.875 6.2 13.875 4.375C13.8738 3.38079 13.4784 2.42764 12.7754 1.72463C12.0724 1.02162 11.1192 0.626158 10.125 0.625ZM7 11.5694C5.97437 10.9775 0.875 7.8575 0.875 4.375C0.875827 3.5796 1.19216 2.81702 1.75459 2.25459C2.31702 1.69216 3.0796 1.37583 3.875 1.375C5.1425 1.375 6.20687 2.05187 6.65312 3.14187C6.68138 3.21065 6.72944 3.26948 6.7912 3.31088C6.85297 3.35228 6.92564 3.37439 7 3.37439C7.07436 3.37439 7.14703 3.35228 7.2088 3.31088C7.27056 3.26948 7.31862 3.21065 7.34688 3.14187C7.79313 2.05187 8.8575 1.375 10.125 1.375C10.9204 1.37583 11.683 1.69216 12.2454 2.25459C12.8078 2.81702 13.1242 3.5796 13.125 4.375C13.125 7.8575 8.02563 10.9775 7 11.5694Z" fill="white"/>
</svg>
