<svg width="136" height="50" viewBox="0 0 136 50" fill="none" xmlns="http://www.w3.org/2000/svg">
<path d="M4.17188 10.25H8.14062L13.9844 26.9531L19.8281 10.25H23.7969L15.5781 33H12.3906L4.17188 10.25ZM2.03125 10.25H5.98438L6.70312 26.5312V33H2.03125V10.25ZM21.9844 10.25H25.9531V33H21.2656V26.5312L21.9844 10.25ZM34.7969 31.0938L39.2812 16.0938H44.1094L37.3125 35.5469C37.1667 35.974 36.9688 36.4323 36.7188 36.9219C36.4792 37.4115 36.151 37.875 35.7344 38.3125C35.3281 38.7604 34.8125 39.125 34.1875 39.4062C33.5729 39.6875 32.8177 39.8281 31.9219 39.8281C31.4948 39.8281 31.1458 39.8021 30.875 39.75C30.6042 39.6979 30.2812 39.625 29.9062 39.5312V36.2344C30.0208 36.2344 30.1406 36.2344 30.2656 36.2344C30.3906 36.2448 30.5104 36.25 30.625 36.25C31.5104 36.25 32.1615 36.099 32.5781 35.7969C32.9948 35.5052 33.3125 35.026 33.5312 34.3594L34.7969 31.0938ZM32.9219 16.0938L36.5938 28.3438L37.2344 33.1094L34.1719 33.4375L28.0938 16.0938H32.9219ZM48.3281 10.25H52.2969L58.1406 26.9531L63.9844 10.25H67.9531L59.7344 33H56.5469L48.3281 10.25ZM46.1875 10.25H50.1406L50.8594 26.5312V33H46.1875V10.25ZM66.1406 10.25H70.1094V33H65.4219V26.5312L66.1406 10.25ZM83.9375 28.9531V16.0938H88.4375V33H84.2031L83.9375 28.9531ZM84.4375 25.4844L85.7656 25.4531C85.7656 26.9531 85.5312 28.2969 85.0625 29.4844C84.6042 30.6719 83.9062 31.6094 82.9688 32.2969C82.0417 32.974 80.8646 33.3125 79.4375 33.3125C77.7812 33.3125 76.4271 32.8229 75.375 31.8438C74.3333 30.8646 73.8125 29.2552 73.8125 27.0156V16.0938H78.3125V27.0469C78.3125 27.7031 78.4167 28.2344 78.625 28.6406C78.8333 29.0469 79.1198 29.3385 79.4844 29.5156C79.8594 29.6823 80.2865 29.7656 80.7656 29.7656C81.6927 29.7656 82.4219 29.5781 82.9531 29.2031C83.4948 28.8281 83.875 28.3177 84.0938 27.6719C84.3229 27.0156 84.4375 26.2865 84.4375 25.4844ZM101.016 28.3281C101.016 28.0052 100.922 27.7135 100.734 27.4531C100.547 27.1927 100.198 26.9531 99.6875 26.7344C99.1875 26.5052 98.4635 26.2969 97.5156 26.1094C96.3698 25.8594 95.3438 25.5208 94.4375 25.0938C93.5312 24.6667 92.8177 24.1198 92.2969 23.4531C91.776 22.7865 91.5156 21.9688 91.5156 21C91.5156 20.0625 91.7812 19.1979 92.3125 18.4062C92.8542 17.6146 93.6302 16.9792 94.6406 16.5C95.651 16.0208 96.8594 15.7812 98.2656 15.7812C99.7344 15.7812 100.995 16.0156 102.047 16.4844C103.109 16.9531 103.922 17.599 104.484 18.4219C105.057 19.2344 105.344 20.1615 105.344 21.2031H100.844C100.844 20.5469 100.635 20 100.219 19.5625C99.8021 19.1146 99.1458 18.8906 98.25 18.8906C97.75 18.8906 97.3177 18.9792 96.9531 19.1562C96.5885 19.3229 96.3073 19.5521 96.1094 19.8438C95.9219 20.125 95.8281 20.4375 95.8281 20.7812C95.8281 21.125 95.9271 21.4271 96.125 21.6875C96.3333 21.9375 96.6667 22.1615 97.125 22.3594C97.5833 22.5469 98.2083 22.7188 99 22.875C100.219 23.125 101.307 23.4531 102.266 23.8594C103.224 24.2552 103.984 24.7969 104.547 25.4844C105.109 26.1615 105.391 27.0521 105.391 28.1562C105.391 29.1458 105.099 30.0312 104.516 30.8125C103.932 31.5938 103.109 32.2083 102.047 32.6562C100.984 33.0938 99.7292 33.3125 98.2812 33.3125C96.7083 33.3125 95.375 33.0312 94.2812 32.4688C93.1979 31.9062 92.375 31.1927 91.8125 30.3281C91.2604 29.4531 90.9844 28.5573 90.9844 27.6406H95.25C95.2708 28.2552 95.4271 28.75 95.7188 29.125C96.0208 29.5 96.401 29.7708 96.8594 29.9375C97.3281 30.1042 97.8333 30.1875 98.375 30.1875C98.9583 30.1875 99.4427 30.1094 99.8281 29.9531C100.214 29.7865 100.505 29.5677 100.703 29.2969C100.911 29.0156 101.016 28.6927 101.016 28.3281ZM113.062 16.0938V33H108.547V16.0938H113.062ZM108.266 11.6875C108.266 11.0312 108.495 10.4896 108.953 10.0625C109.411 9.63542 110.026 9.42188 110.797 9.42188C111.557 9.42188 112.167 9.63542 112.625 10.0625C113.094 10.4896 113.328 11.0312 113.328 11.6875C113.328 12.3438 113.094 12.8854 112.625 13.3125C112.167 13.7396 111.557 13.9531 110.797 13.9531C110.026 13.9531 109.411 13.7396 108.953 13.3125C108.495 12.8854 108.266 12.3438 108.266 11.6875ZM123.766 29.7969C124.318 29.7969 124.807 29.6927 125.234 29.4844C125.661 29.2656 125.995 28.9635 126.234 28.5781C126.484 28.1823 126.615 27.7188 126.625 27.1875H130.859C130.849 28.375 130.531 29.4323 129.906 30.3594C129.281 31.276 128.443 32 127.391 32.5312C126.339 33.0521 125.161 33.3125 123.859 33.3125C122.109 33.3125 120.656 32.9323 119.5 32.1719C118.354 31.4115 117.495 30.3854 116.922 29.0938C116.349 27.8021 116.062 26.3646 116.062 24.7812V24.3281C116.062 22.7344 116.349 21.2917 116.922 20C117.495 18.7083 118.354 17.6823 119.5 16.9219C120.656 16.1615 122.099 15.7812 123.828 15.7812C125.214 15.7812 126.427 16.0469 127.469 16.5781C128.521 17.1094 129.344 17.8698 129.938 18.8594C130.542 19.8385 130.849 21 130.859 22.3438H126.625C126.615 21.7812 126.495 21.2708 126.266 20.8125C126.047 20.3542 125.724 19.9896 125.297 19.7188C124.88 19.4375 124.365 19.2969 123.75 19.2969C122.875 19.2969 122.208 19.5365 121.75 20.0156C121.292 20.4948 120.979 21.1198 120.812 21.8906C120.646 22.651 120.562 23.4635 120.562 24.3281V24.7812C120.562 25.6667 120.646 26.4896 120.812 27.25C120.979 28.0104 121.292 28.625 121.75 29.0938C122.219 29.5625 122.891 29.7969 123.766 29.7969Z" fill="url(#paint0_linear_418_157)"/>
<defs>
<linearGradient id="paint0_linear_418_157" x1="-6.64662" y1="24" x2="172.867" y2="24.6176" gradientUnits="userSpaceOnUse">
<stop stop-color="#EE10B0"/>
<stop offset="1" stop-color="#0E9EEF" stop-opacity="0.92"/>
</linearGradient>
</defs>
</svg>
