<svg width="14" height="11" viewBox="0 0 14 11" fill="none" xmlns="http://www.w3.org/2000/svg">
<path d="M0 0.5C0 0.367392 0.0526785 0.240215 0.146447 0.146447C0.240215 0.0526785 0.367392 0 0.5 0H11.5C11.6326 0 11.7598 0.0526785 11.8536 0.146447C11.9473 0.240215 12 0.367392 12 0.5C12 0.632608 11.9473 0.759785 11.8536 0.853553C11.7598 0.947321 11.6326 1 11.5 1H0.5C0.367392 1 0.240215 0.947321 0.146447 0.853553C0.0526785 0.759785 0 0.632608 0 0.5ZM0.5 5H8C8.13261 5 8.25979 4.94732 8.35355 4.85355C8.44732 4.75979 8.5 4.63261 8.5 4.5C8.5 4.36739 8.44732 4.24021 8.35355 4.14645C8.25979 4.05268 8.13261 4 8 4H0.5C0.367392 4 0.240215 4.05268 0.146447 4.14645C0.0526785 4.24021 0 4.36739 0 4.5C0 4.63261 0.0526785 4.75979 0.146447 4.85355C0.240215 4.94732 0.367392 5 0.5 5ZM5 8H0.5C0.367392 8 0.240215 8.05268 0.146447 8.14645C0.0526785 8.24021 0 8.36739 0 8.5C0 8.63261 0.0526785 8.75979 0.146447 8.85355C0.240215 8.94732 0.367392 9 0.5 9H5C5.13261 9 5.25979 8.94732 5.35355 8.85355C5.44732 8.75979 5.5 8.63261 5.5 8.5C5.5 8.36739 5.44732 8.24021 5.35355 8.14645C5.25979 8.05268 5.13261 8 5 8ZM13.4788 4.39375C13.4599 4.45689 13.4287 4.51567 13.387 4.56672C13.3453 4.61777 13.294 4.66008 13.2359 4.69121C13.1778 4.72235 13.1142 4.74169 13.0486 4.74813C12.983 4.75457 12.9168 4.74799 12.8538 4.72875L11 4.17188V8.5C11.0007 8.94117 10.8558 9.37024 10.5876 9.72059C10.3195 10.0709 9.94326 10.323 9.51723 10.4376C9.0912 10.5522 8.63926 10.5229 8.23156 10.3544C7.82385 10.1858 7.4832 9.8874 7.26248 9.50541C7.04176 9.12342 6.95331 8.67925 7.01088 8.24185C7.06844 7.80445 7.2688 7.39829 7.58084 7.08642C7.89288 6.77455 8.29915 6.57442 8.73658 6.51709C9.17401 6.45976 9.61813 6.54845 10 6.76937V3.5C10 3.42206 10.0183 3.3452 10.0533 3.27557C10.0883 3.20593 10.1391 3.14544 10.2016 3.09893C10.2642 3.05242 10.3367 3.02117 10.4135 3.00768C10.4902 2.9942 10.5691 2.99884 10.6438 3.02125L13.1438 3.77125C13.2707 3.80941 13.3773 3.89641 13.4401 4.01315C13.5029 4.12988 13.5168 4.26678 13.4788 4.39375ZM10 8.5C10 8.30222 9.94135 8.10888 9.83147 7.94443C9.72159 7.77998 9.56541 7.65181 9.38268 7.57612C9.19996 7.50043 8.99889 7.48063 8.80491 7.51921C8.61093 7.5578 8.43275 7.65304 8.29289 7.79289C8.15304 7.93275 8.0578 8.11093 8.01921 8.30491C7.98063 8.49889 8.00043 8.69996 8.07612 8.88268C8.15181 9.06541 8.27998 9.22159 8.44443 9.33147C8.60888 9.44135 8.80222 9.5 9 9.5C9.26522 9.5 9.51957 9.39464 9.70711 9.20711C9.89464 9.01957 10 8.76522 10 8.5Z" fill="white"/>
</svg>
