<svg width="19" height="19" viewBox="0 0 19 19" fill="none" xmlns="http://www.w3.org/2000/svg">
<path opacity="0.6" fill-rule="evenodd" clip-rule="evenodd" d="M7.01561 12.5896C8.41962 13.7114 10.1999 14.253 11.9907 14.1032C13.7816 13.9534 15.4471 13.1236 16.6453 11.7841C17.8434 10.4447 18.4831 8.69729 18.4332 6.90087C18.3832 5.10445 17.6472 3.39535 16.3765 2.12459C15.1057 0.853839 13.3966 0.117894 11.6002 0.0679086C9.80378 0.0179231 8.0564 0.657692 6.71695 1.85582C5.3775 3.05394 4.54765 4.71947 4.39785 6.51034C4.24805 8.3012 4.78966 10.0815 5.91145 11.4855L0.540613 16.8552C0.463858 16.9268 0.402292 17.013 0.359592 17.1089C0.316893 17.2047 0.293932 17.3081 0.29208 17.413C0.29023 17.5179 0.309526 17.6221 0.34882 17.7194C0.388113 17.8167 0.446594 17.9051 0.520781 17.9792C0.594967 18.0534 0.683336 18.1119 0.780617 18.1512C0.877895 18.1905 0.982094 18.2098 1.08699 18.2079C1.19189 18.2061 1.29534 18.1831 1.39117 18.1404C1.48701 18.0977 1.57326 18.0362 1.64478 17.9594L7.01561 12.5896ZM15.2719 10.9625C16.0364 10.1979 16.5571 9.22381 16.7682 8.16334C16.9793 7.10286 16.8713 6.00361 16.4578 5.00452C16.0443 4.00542 15.3439 3.15131 14.4452 2.55014C13.5464 1.94897 12.4896 1.62773 11.4084 1.627C10.3271 1.62627 9.26985 1.9461 8.37028 2.54605C7.47072 3.14601 6.7692 3.99917 6.35438 4.99772C5.93956 5.99626 5.83005 7.09536 6.03971 8.15612C6.24937 9.21688 6.76877 10.1917 7.53228 10.9573L7.53749 10.9625L7.5427 10.9667C8.56864 11.9903 9.95892 12.5648 11.4081 12.564C12.8574 12.5632 14.247 11.9872 15.2719 10.9625Z" fill="white"/>
</svg>
