<svg aria-hidden="true" style="position: absolute; width: 0; height: 0; overflow: hidden;" version="1.1" xmlns="http://www.w3.org/2000/svg" xmlns:xlink="http://www.w3.org/1999/xlink">
<defs>
<symbol id="icon-add-playlist" viewBox="0 0 30 32">
<path fill="currentColor" d="M5.476 20.106v-10.953h-2.741c-1.506 0-2.735 1.229-2.735 2.741v16.429c0 1.506 1.229 2.735 2.735 2.735h16.429c1.512 0 2.735-1.229 2.735-2.735v-2.735h-10.947c-3.024-0.006-5.476-2.459-5.476-5.483zM27.382 0.941h-16.429c-1.512 0-2.735 1.229-2.735 2.735v16.429c0 1.512 1.229 2.735 2.735 2.735h16.429c1.512 0 2.735-1.23 2.735-2.735v-16.429c0-1.506-1.229-2.735-2.735-2.735zM26.012 13.265h-5.477v5.476h-2.735v-5.476h-5.476v-2.735h5.476v-5.482h2.735v5.476h5.477v2.741z"></path>
</symbol>
<symbol id="icon-album" viewBox="0 0 30 32">
<path fill="#fff" style="fill: var(--color2, #fff)" d="M14.769 21.744c1.609 0 2.969-0.555 4.080-1.664 1.109-1.111 1.664-2.471 1.664-4.080 0-1.609-0.555-2.969-1.664-4.080-1.111-1.109-2.471-1.664-4.080-1.664-1.609 0-2.969 0.555-4.080 1.664-1.109 1.111-1.664 2.471-1.664 4.080 0 1.609 0.555 2.969 1.664 4.080 1.111 1.109 2.471 1.664 4.080 1.664zM14.769 17.641c-0.465 0-0.854-0.158-1.168-0.473s-0.472-0.705-0.473-1.168c0-0.465 0.158-0.854 0.473-1.168s0.705-0.472 1.168-0.473c0.465 0 0.855 0.158 1.17 0.473s0.472 0.705 0.471 1.168c0 0.465-0.158 0.855-0.473 1.17s-0.705 0.472-1.168 0.471zM14.774 30.769c-2.041 0-3.961-0.387-5.76-1.162-1.797-0.776-3.361-1.828-4.692-3.157-1.33-1.328-2.383-2.89-3.159-4.687s-1.163-3.716-1.163-5.758c0-2.041 0.387-3.961 1.162-5.76 0.776-1.797 1.828-3.361 3.157-4.692 1.328-1.33 2.89-2.383 4.687-3.159s3.716-1.163 5.758-1.163c2.041 0 3.961 0.387 5.76 1.162 1.797 0.776 3.361 1.828 4.692 3.157 1.33 1.328 2.383 2.89 3.159 4.687s1.164 3.716 1.164 5.758c0 2.041-0.387 3.961-1.162 5.76-0.776 1.797-1.828 3.361-3.157 4.692-1.328 1.33-2.89 2.383-4.687 3.159s-3.716 1.164-5.758 1.164zM14.769 29.128c3.665 0 6.769-1.272 9.313-3.815s3.815-5.648 3.815-9.313-1.272-6.769-3.815-9.313c-2.544-2.544-5.648-3.815-9.313-3.815s-6.769 1.272-9.313 3.815c-2.544 2.544-3.815 5.648-3.815 9.313s1.272 6.769 3.815 9.313c2.544 2.544 5.648 3.815 9.313 3.815z"></path>
</symbol>
<symbol id="icon-artists" viewBox="0 0 30 32">
<path fill="#fff" style="fill: var(--color2, #fff)" d="M14.933 18.133c-1.509 0-2.956-0.599-4.023-1.666s-1.666-2.514-1.666-4.023c0-1.509 0.599-2.956 1.666-4.023s2.514-1.666 4.023-1.666c1.509 0 2.956 0.599 4.023 1.666s1.666 2.514 1.666 4.023c0 1.509-0.599 2.956-1.666 4.023s-2.514 1.666-4.023 1.666zM14.933 16.711c0.56 0 1.115-0.11 1.633-0.325s0.988-0.529 1.384-0.925c0.396-0.396 0.71-0.867 0.925-1.384s0.325-1.072 0.325-1.633c0-0.56-0.11-1.115-0.325-1.633s-0.529-0.988-0.925-1.384c-0.396-0.396-0.867-0.71-1.384-0.925s-1.072-0.325-1.633-0.325c-1.132 0-2.217 0.45-3.017 1.25s-1.25 1.885-1.25 3.017c0 1.132 0.45 2.217 1.25 3.017s1.885 1.25 3.017 1.25z"></path>
<path fill="#fff" style="fill: var(--color2, #fff)" d="M29.155 16c0-7.855-6.367-14.222-14.222-14.222s-14.222 6.367-14.222 14.222c0 7.855 6.367 14.222 14.222 14.222s14.222-6.367 14.222-14.222zM21.781 26.816c-2.047 1.3-4.423 1.988-6.848 1.984-2.483 0.004-4.913-0.718-6.991-2.077-0.171-0.213-0.344-0.434-0.519-0.661-0.203-0.266-0.313-0.593-0.312-0.928 0-0.766 0.55-1.408 1.286-1.515 4.868-0.711 8.219-0.65 13.093 0.025 0.353 0.051 0.676 0.228 0.908 0.499s0.359 0.616 0.357 0.972c0 0.341-0.117 0.673-0.329 0.932-0.218 0.266-0.434 0.523-0.645 0.77zM24.167 24.865c-0.114-1.331-1.124-2.442-2.482-2.63-4.989-0.69-8.476-0.756-13.493-0.023-1.365 0.199-2.372 1.32-2.491 2.655-2.293-2.381-3.572-5.56-3.568-8.866 0-7.069 5.731-12.8 12.8-12.8s12.8 5.731 12.8 12.8c0.004 3.305-1.274 6.483-3.566 8.865z"></path>
</symbol>
<symbol id="icon-back" viewBox="0 0 32 32">
<path fill="#fff" style="fill: var(--color2, #fff)" d="M7.814 17.961l10.98 10.98-2.794 2.745-15.686-15.686 15.686-15.686 2.794 2.745-10.98 10.98h23.873v3.922h-23.873z"></path>
</symbol>
<symbol id="icon-discover" viewBox="0 0 32 32">
<path fill="#fff" style="fill: var(--color2, #fff)" d="M7.385 24.615l11.214-6.016 6.016-11.214-11.214 6.016-6.016 11.214zM16 17.778c-0.504 0-0.926-0.171-1.266-0.512s-0.511-0.763-0.512-1.266c0-0.504 0.171-0.926 0.512-1.266s0.763-0.511 1.266-0.512c0.504 0 0.926 0.171 1.268 0.512s0.511 0.763 0.51 1.266c0 0.504-0.171 0.926-0.512 1.268s-0.763 0.511-1.266 0.51zM16.005 32c-2.212 0-4.292-0.419-6.24-1.259-1.947-0.84-3.642-1.981-5.083-3.421-1.441-1.439-2.582-3.131-3.422-5.077s-1.26-4.025-1.26-6.238c0-2.212 0.42-4.292 1.259-6.24 0.84-1.947 1.98-3.642 3.42-5.083 1.439-1.441 3.131-2.582 5.077-3.422s4.025-1.26 6.238-1.26c2.212 0 4.292 0.42 6.24 1.259 1.947 0.84 3.642 1.98 5.083 3.42 1.441 1.439 2.582 3.131 3.422 5.077s1.261 4.025 1.261 6.238c0 2.212-0.419 4.292-1.259 6.24-0.84 1.947-1.981 3.642-3.421 5.083-1.439 1.441-3.131 2.582-5.077 3.422s-4.025 1.261-6.238 1.261zM16 30.222c3.97 0 7.333-1.378 10.089-4.133s4.133-6.119 4.133-10.089-1.378-7.333-4.133-10.089c-2.756-2.756-6.119-4.133-10.089-4.133s-7.333 1.378-10.089 4.133c-2.756 2.756-4.133 6.119-4.133 10.089s1.378 7.333 4.133 10.089c2.756 2.756 6.118 4.133 10.089 4.133z"></path>
</symbol>
<symbol id="icon-favorite" viewBox="0 0 34 32">
<path fill="currentColor" d="M24.923 1.538c-3.231 0-6.040 1.457-7.692 3.898-1.652-2.442-4.462-3.898-7.692-3.898-2.447 0.003-4.793 0.976-6.524 2.707s-2.704 4.077-2.707 6.524c0 4.492 2.8 9.168 8.323 13.894 2.531 2.157 5.265 4.063 8.163 5.692 0.134 0.072 0.284 0.11 0.437 0.11s0.303-0.038 0.437-0.11c2.898-1.63 5.632-3.536 8.163-5.692 5.523-4.726 8.323-9.402 8.323-13.894-0.003-2.447-0.976-4.793-2.707-6.524s-4.077-2.704-6.524-2.707zM17.231 28.479c-2.525-1.457-15.077-9.137-15.077-17.709 0.002-1.958 0.781-3.835 2.165-5.219s3.262-2.163 5.219-2.165c3.12 0 5.74 1.666 6.838 4.349 0.070 0.169 0.188 0.314 0.34 0.416s0.331 0.156 0.514 0.156c0.183 0 0.362-0.054 0.514-0.156s0.27-0.247 0.34-0.416c1.098-2.683 3.718-4.349 6.838-4.349 1.958 0.002 3.835 0.781 5.219 2.165s2.163 3.262 2.165 5.219c0 8.572-12.552 16.252-15.077 17.709z"></path>
</symbol>
<symbol id="icon-home" viewBox="0 0 30 32">
<path fill="none" stroke="currentColor" style="stroke: var(--color2, #fff)" stroke-linejoin="miter" stroke-linecap="butt" stroke-miterlimit="4" stroke-width="2.5263" d="M1.684 16.275c0-3.084 0-4.626 0.701-5.903 0.698-1.279 1.977-2.071 4.533-3.658l2.695-1.672c2.701-1.677 4.053-2.516 5.546-2.516s2.843 0.838 5.546 2.516l2.695 1.672c2.556 1.587 3.835 2.379 4.534 3.658 0.699 1.277 0.699 2.819 0.699 5.901v2.051c0 5.255 0 7.883-1.579 9.516-1.578 1.633-4.119 1.633-9.2 1.633h-5.389c-5.081 0-7.622 0-9.2-1.633-1.579-1.633-1.579-4.26-1.579-9.516v-2.049z"></path>
<path fill="none" stroke="#fff" style="stroke: var(--color2, #fff)" stroke-linejoin="miter" stroke-linecap="round" stroke-miterlimit="4" stroke-width="2.5263" d="M15.158 20.042v4.042"></path>
</symbol>
<symbol id="icon-icon-log" viewBox="0 0 32 32">
<path fill="#fff" style="fill: var(--color2, #fff)" d="M16 3.451c2.195-0 4.352 0.575 6.255 1.668s3.486 2.667 4.591 4.564c1.105 1.897 1.693 4.050 1.706 6.245s-0.551 4.355-1.634 6.264c-0.732-0.951-1.673-1.721-2.75-2.251s-2.262-0.804-3.462-0.803h-9.412c-1.2-0.001-2.385 0.273-3.462 0.803s-2.018 1.3-2.75 2.251c-1.083-1.909-1.646-4.069-1.633-6.264s0.601-4.348 1.706-6.245c1.105-1.897 2.688-3.47 4.591-4.564s4.060-1.669 6.255-1.668zM28.46 25.531c2.097-2.734 3.232-6.085 3.227-9.531 0-8.664-7.023-15.686-15.686-15.686s-15.686 7.023-15.686 15.686c-0.005 3.446 1.129 6.797 3.227 9.531l-0.008 0.028 0.557 0.648c1.471 1.72 3.298 3.101 5.354 4.047s4.293 1.435 6.556 1.433c3.18 0.006 6.286-0.96 8.902-2.769 1.115-0.77 2.126-1.681 3.009-2.711l0.557-0.648-0.008-0.028zM16 6.588c-1.248 0-2.445 0.496-3.328 1.378s-1.378 2.080-1.378 3.328c0 1.248 0.496 2.445 1.378 3.328s2.080 1.378 3.328 1.378c1.248 0 2.445-0.496 3.328-1.378s1.378-2.080 1.378-3.328c0-1.248-0.496-2.445-1.378-3.328s-2.080-1.378-3.328-1.378z"></path>
</symbol>
<symbol id="icon-logo" viewBox="0 0 87 32">
<path d="M2.67 6.56h2.54l3.74 10.69 3.74-10.69h2.54l-5.26 14.56h-2.040l-5.26-14.56zM1.3 6.56h2.53l0.46 10.42v4.14h-2.99v-14.56zM14.070 6.56h2.54v14.56h-3v-4.14l0.46-10.42zM22.27 19.9l2.87-9.6h3.090l-4.35 12.45c-0.093 0.273-0.22 0.567-0.38 0.88-0.153 0.313-0.363 0.61-0.63 0.89-0.26 0.287-0.59 0.52-0.99 0.7-0.393 0.18-0.877 0.27-1.45 0.27-0.273 0-0.497-0.017-0.67-0.050s-0.38-0.080-0.62-0.14v-2.11c0.073 0 0.15 0 0.23 0 0.080 0.007 0.157 0.010 0.23 0.010 0.567 0 0.983-0.097 1.25-0.29 0.267-0.187 0.47-0.493 0.61-0.92l0.81-2.090zM21.070 10.3l2.35 7.84 0.41 3.050-1.96 0.21-3.89-11.1h3.090zM30.93 6.56h2.54l3.74 10.69 3.74-10.69h2.54l-5.26 14.56h-2.040l-5.26-14.56zM29.56 6.56h2.53l0.46 10.42v4.14h-2.99v-14.56zM42.33 6.56h2.54v14.56h-3v-4.14l0.46-10.42zM53.72 18.53v-8.23h2.88v10.82h-2.71l-0.17-2.59zM54.040 16.31l0.85-0.020c0 0.96-0.15 1.82-0.45 2.58-0.293 0.76-0.74 1.36-1.34 1.8-0.593 0.433-1.347 0.65-2.26 0.65-1.060 0-1.927-0.313-2.6-0.94-0.667-0.627-1-1.657-1-3.090v-6.99h2.88v7.010c0 0.42 0.067 0.76 0.2 1.020s0.317 0.447 0.55 0.56c0.24 0.107 0.513 0.16 0.82 0.16 0.593 0 1.060-0.12 1.4-0.36 0.347-0.24 0.59-0.567 0.73-0.98 0.147-0.42 0.22-0.887 0.22-1.4zM64.65 18.13c0-0.207-0.060-0.393-0.18-0.56s-0.343-0.32-0.67-0.46c-0.32-0.147-0.783-0.28-1.39-0.4-0.733-0.16-1.39-0.377-1.97-0.65s-1.037-0.623-1.37-1.050c-0.333-0.427-0.5-0.95-0.5-1.57 0-0.6 0.17-1.153 0.51-1.66 0.347-0.507 0.843-0.913 1.49-1.22s1.42-0.46 2.32-0.46c0.94 0 1.747 0.15 2.42 0.45 0.68 0.3 1.2 0.713 1.56 1.24 0.367 0.52 0.55 1.113 0.55 1.78h-2.88c0-0.42-0.134-0.77-0.4-1.050-0.267-0.287-0.687-0.43-1.26-0.43-0.32 0-0.597 0.057-0.83 0.17-0.233 0.107-0.413 0.253-0.54 0.44-0.12 0.18-0.18 0.38-0.18 0.6s0.063 0.413 0.19 0.58c0.133 0.16 0.347 0.303 0.64 0.43 0.293 0.12 0.693 0.23 1.2 0.33 0.78 0.16 1.476 0.37 2.090 0.63 0.613 0.253 1.1 0.6 1.46 1.040 0.36 0.433 0.54 1.003 0.54 1.71 0 0.633-0.187 1.2-0.56 1.7s-0.9 0.893-1.58 1.18c-0.68 0.28-1.483 0.42-2.41 0.42-1.007 0-1.86-0.18-2.56-0.54-0.693-0.36-1.22-0.817-1.58-1.37-0.353-0.56-0.53-1.133-0.53-1.72h2.73c0.013 0.393 0.113 0.71 0.3 0.95 0.193 0.24 0.437 0.413 0.73 0.52 0.3 0.107 0.623 0.16 0.97 0.16 0.373 0 0.683-0.050 0.93-0.15 0.247-0.107 0.433-0.247 0.56-0.42 0.133-0.18 0.2-0.387 0.2-0.62zM72.36 10.3v10.82h-2.89v-10.82h2.89zM69.29 7.48c0-0.42 0.147-0.767 0.44-1.040s0.687-0.41 1.18-0.41c0.486 0 0.877 0.137 1.17 0.41 0.3 0.273 0.45 0.62 0.45 1.040s-0.15 0.767-0.45 1.040c-0.293 0.273-0.684 0.41-1.17 0.41-0.493 0-0.887-0.137-1.18-0.41s-0.44-0.62-0.44-1.040zM79.21 19.070c0.353 0 0.666-0.067 0.94-0.2 0.273-0.14 0.487-0.333 0.64-0.58 0.16-0.253 0.244-0.55 0.25-0.89h2.71c-0.006 0.76-0.21 1.437-0.61 2.030-0.4 0.587-0.936 1.050-1.61 1.39-0.673 0.333-1.427 0.5-2.26 0.5-1.12 0-2.050-0.243-2.79-0.73-0.733-0.487-1.283-1.143-1.65-1.97s-0.55-1.747-0.55-2.76v-0.29c0-1.020 0.184-1.943 0.55-2.77s0.916-1.483 1.65-1.97c0.74-0.487 1.663-0.73 2.77-0.73 0.887 0 1.663 0.17 2.33 0.51 0.673 0.34 1.2 0.827 1.58 1.46 0.387 0.627 0.583 1.37 0.589 2.23h-2.71c-0.006-0.36-0.083-0.687-0.23-0.98-0.14-0.293-0.347-0.527-0.62-0.7-0.267-0.18-0.596-0.27-0.99-0.27-0.56 0-0.987 0.153-1.28 0.46s-0.493 0.707-0.6 1.2c-0.106 0.487-0.16 1.007-0.16 1.56v0.29c0 0.567 0.054 1.093 0.16 1.58s0.307 0.88 0.6 1.18c0.3 0.3 0.73 0.45 1.29 0.45z"></path>
</symbol>
<symbol id="icon-logout" viewBox="0 0 30 32">
<path fill="none" stroke="#ee10b0" style="stroke: var(--color3, #ee10b0)" stroke-linejoin="miter" stroke-linecap="round" stroke-miterlimit="4" stroke-width="4.2667" d="M18.489 6.044v-1.422c0-0.785-0.637-1.422-1.422-1.422h-12.8c-0.785 0-1.422 0.637-1.422 1.422v22.755c0 0.785 0.637 1.422 1.422 1.422h12.8c0.785 0 1.422-0.637 1.422-1.422v-1.422"></path>
<path fill="none" stroke="#ee10b0" style="stroke: var(--color3, #ee10b0)" stroke-linejoin="miter" stroke-linecap="round" stroke-miterlimit="4" stroke-width="4.2667" d="M9.955 16h15.645"></path>
<path fill="none" stroke="#ee10b0" style="stroke: var(--color3, #ee10b0)" stroke-linejoin="miter" stroke-linecap="round" stroke-miterlimit="4" stroke-width="4.2667" d="M20.622 11.022l4.978 4.978-4.978 4.978"></path>
</symbol>
<symbol id="icon-playlist" viewBox="0 0 41 32">
<path fill="currentColor"  d="M0 1.455c0-0.386 0.153-0.756 0.426-1.029s0.643-0.426 1.029-0.426h32c0.386 0 0.756 0.153 1.029 0.426s0.426 0.643 0.426 1.029-0.153 0.756-0.426 1.029c-0.273 0.273-0.643 0.426-1.029 0.426h-32c-0.386 0-0.756-0.153-1.029-0.426s-0.426-0.643-0.426-1.029zM1.455 14.545h21.818c0.386 0 0.756-0.153 1.029-0.426s0.426-0.643 0.426-1.028c0-0.386-0.153-0.756-0.426-1.028s-0.643-0.426-1.029-0.426h-21.818c-0.386 0-0.756 0.153-1.029 0.426s-0.426 0.643-0.426 1.028c0 0.386 0.153 0.756 0.426 1.028s0.643 0.426 1.029 0.426zM14.545 23.273h-13.091c-0.386 0-0.756 0.153-1.029 0.426s-0.426 0.643-0.426 1.029c0 0.386 0.153 0.756 0.426 1.029s0.643 0.426 1.029 0.426h13.091c0.386 0 0.756-0.153 1.028-0.426s0.426-0.643 0.426-1.029c0-0.386-0.153-0.756-0.426-1.029s-0.643-0.426-1.028-0.426zM39.211 12.782c-0.055 0.184-0.146 0.355-0.267 0.503s-0.271 0.272-0.44 0.362c-0.169 0.091-0.354 0.147-0.545 0.166s-0.383-0-0.567-0.056l-5.393-1.62v12.591c0.002 1.283-0.419 2.532-1.2 3.551s-1.874 1.752-3.114 2.086-2.554 0.248-3.74-0.242c-1.186-0.49-2.177-1.359-2.819-2.47s-0.899-2.403-0.732-3.676c0.167-1.272 0.75-2.454 1.658-3.361s2.090-1.489 3.362-1.656c1.273-0.167 2.564 0.091 3.675 0.734v-9.511c0-0.227 0.053-0.45 0.155-0.653s0.25-0.379 0.431-0.514c0.182-0.135 0.393-0.226 0.616-0.265s0.453-0.026 0.67 0.039l7.273 2.182c0.369 0.111 0.679 0.364 0.862 0.704s0.223 0.738 0.113 1.107zM29.091 24.727c0-0.575-0.171-1.138-0.49-1.616s-0.774-0.851-1.306-1.071c-0.532-0.22-1.116-0.278-1.681-0.166s-1.083 0.389-1.489 0.796c-0.407 0.407-0.684 0.925-0.796 1.489s-0.055 1.149 0.166 1.681c0.22 0.532 0.593 0.986 1.071 1.306s1.041 0.49 1.616 0.49c0.772 0 1.511-0.306 2.057-0.852s0.852-1.285 0.852-2.057z"></path>
</symbol>
<symbol id="icon-search" viewBox="0 0 32 32">
<path fill="#fff" style="fill: var(--color2, #fff)" opacity="0.6" d="M11.816 21.204l-9.046 9.044c-0.12 0.129-0.266 0.233-0.427 0.305s-0.336 0.111-0.512 0.114c-0.177 0.003-0.352-0.029-0.516-0.096s-0.313-0.165-0.438-0.29c-0.125-0.125-0.223-0.274-0.29-0.438s-0.099-0.339-0.096-0.516c0.003-0.177 0.042-0.351 0.114-0.512s0.176-0.307 0.305-0.427l9.046-9.044c-1.889-2.365-2.802-5.363-2.549-8.379s1.65-5.821 3.906-7.839c2.256-2.018 5.199-3.095 8.224-3.011s5.904 1.324 8.044 3.464c2.14 2.14 3.38 5.019 3.464 8.044s-0.993 5.969-3.011 8.224c-2.018 2.256-4.823 3.654-7.839 3.906s-6.014-0.66-8.379-2.549zM25.721 18.463c1.288-1.288 2.165-2.928 2.52-4.714s0.174-3.637-0.523-5.32c-0.696-1.683-1.876-3.121-3.39-4.134s-3.294-1.554-5.115-1.555c-1.821-0.001-3.602 0.537-5.117 1.548s-2.697 2.447-3.395 4.129c-0.699 1.682-0.883 3.533-0.53 5.319s1.228 3.428 2.514 4.718l0.009 0.009 0.009 0.007c1.728 1.724 4.069 2.692 6.51 2.69s4.781-0.971 6.507-2.697z"></path>
</symbol>
</defs>
</svg>
